<svg width="30" height="30" viewBox="0 0 30 30" fill="none" xmlns="http://www.w3.org/2000/svg">
<path d="M13.3162 0.107096C6.40219 0.880736 0.840926 6.60568 0.0894037 13.5684C-0.662119 20.8407 3.3961 27.3393 9.55858 29.8149C10.0095 29.9697 10.4604 29.6602 10.4604 29.0413V26.5656C10.4604 26.5656 9.8592 26.7204 9.10767 26.7204C7.00341 26.7204 6.10158 24.8635 5.95128 23.7805C5.80098 23.1616 5.50037 22.6974 5.04945 22.2333C4.59854 22.0785 4.44824 22.0785 4.44824 21.9238C4.44824 21.6144 4.89915 21.6142 5.04945 21.6142C5.95128 21.6142 6.7028 22.6974 7.00341 23.1616C7.75494 24.3994 8.65676 24.7089 9.10767 24.7089C9.70889 24.7089 10.1598 24.5541 10.4604 24.3994C10.6107 23.3163 11.0616 22.2333 11.9635 21.6142C8.50645 20.8407 5.95128 18.8292 5.95128 15.4252C5.95128 13.7232 6.70279 12.0212 7.75494 10.7833C7.60463 10.4739 7.45433 9.70024 7.45433 8.61715C7.45433 7.99823 7.45433 7.06987 7.90524 6.14149C7.90524 6.14149 10.0095 6.14149 12.1138 8.15296C12.8653 7.84351 13.9174 7.68877 14.9696 7.68877C16.0217 7.68877 17.0737 7.84351 17.9757 8.15296C19.9296 6.14149 22.1841 6.14149 22.1841 6.14149C22.4847 7.06987 22.4848 7.99823 22.4848 8.61715C22.4848 9.85496 22.3344 10.4739 22.1841 10.7833C23.2364 12.0212 23.9879 13.5684 23.9879 15.4252C23.9879 18.8292 21.4326 20.8407 17.9757 21.6142C18.8775 22.3879 19.4787 23.7805 19.4787 25.173V29.196C19.4787 29.6602 19.9296 30.1243 20.5308 29.9697C26.092 27.6487 30 22.0785 30 15.5799C30 6.29621 22.3344 -0.976001 13.3162 0.107096Z" fill="#1C1D21"/>
</svg>
