<svg width="20" height="20" viewBox="0 0 20 20" fill="none" xmlns="http://www.w3.org/2000/svg">
<path d="M8.87747 0.0713971C4.26813 0.587158 0.560617 4.40379 0.0596024 9.04564C-0.441413 13.8938 2.26407 18.2262 6.37239 19.8766C6.673 19.9798 6.97361 19.7735 6.97361 19.3609V17.7104C6.97361 17.7104 6.5728 17.8136 6.07178 17.8136C4.66894 17.8136 4.06772 16.5757 3.96752 15.8537C3.86732 15.4411 3.66691 15.1316 3.3663 14.8222C3.06569 14.719 2.96549 14.719 2.96549 14.6159C2.96549 14.4096 3.2661 14.4095 3.3663 14.4095C3.96752 14.4095 4.46853 15.1316 4.66894 15.4411C5.16996 16.2663 5.77117 16.4726 6.07178 16.4726C6.47259 16.4726 6.7732 16.3694 6.97361 16.2663C7.07381 15.5442 7.37442 14.8222 7.97564 14.4095C5.67097 13.8938 3.96752 12.5528 3.96752 10.2835C3.96752 9.14879 4.46853 8.01412 5.16996 7.1889C5.06975 6.98259 4.96955 6.46683 4.96955 5.74477C4.96955 5.33216 4.96955 4.71325 5.27016 4.09433C5.27016 4.09433 6.673 4.09433 8.07584 5.43531C8.57686 5.22901 9.27828 5.12585 9.9797 5.12585C10.6811 5.12585 11.3825 5.22901 11.9838 5.43531C13.2864 4.09433 14.7894 4.09433 14.7894 4.09433C14.9898 4.71325 14.9899 5.33216 14.9899 5.74477C14.9899 6.56998 14.8896 6.98259 14.7894 7.1889C15.4909 8.01412 15.9919 9.04564 15.9919 10.2835C15.9919 12.5528 14.2884 13.8938 11.9838 14.4095C12.585 14.9253 12.9858 15.8537 12.9858 16.782V19.464C12.9858 19.7735 13.2864 20.0829 13.6872 19.9798C17.3947 18.4325 20 14.719 20 10.3866C20 4.19748 14.8896 -0.650668 8.87747 0.0713971Z" fill="white"/>
</svg>
