<svg width="20" height="20" viewBox="0 0 20 20" fill="none" xmlns="http://www.w3.org/2000/svg">
<path d="M18.5727 0.0118409C18.2402 -0.0273282 17.8789 0.0303489 17.5158 0.189803C17.0657 0.386481 10.0128 3.68241 3.4383 6.75703L1.26592 7.77272C0.424724 8.15163 0 8.76786 0 9.59791C0 10.1791 0.221395 10.9673 1.27764 11.4318L4.94451 13.0638C5.26159 14.1206 5.99804 16.5741 6.18308 17.2264C6.29311 17.6131 6.57102 18.5872 7.27318 18.815C7.41721 18.8695 7.56751 18.8975 7.72055 18.8975C8.16365 18.8975 8.4827 18.6684 8.63873 18.5351L10.9694 16.3453L13.8001 19.2534C13.9091 19.3768 14.4862 20 15.2614 20C16.2286 20 16.9623 19.1055 17.1153 18.2399C17.1983 17.7654 19.9285 2.54015 19.9285 2.54237C20.1735 1.32119 19.7329 0.687697 19.4498 0.417681C19.2073 0.187112 18.9051 0.0510099 18.5727 0.0118409ZM17.9104 2.41216C17.5333 4.51228 15.4777 15.9756 15.1656 17.6279L11.028 13.3763L8.22066 16.0176L8.99819 12.6385C8.99819 12.6385 14.362 6.60683 14.6851 6.2557C14.9451 5.97457 14.9996 5.87602 14.9996 5.77824C14.9996 5.64823 14.9394 5.5547 14.8003 5.5547C14.6753 5.5547 14.5055 5.6878 14.4155 5.75003C13.2719 6.54209 8.40215 9.6241 6.00531 11.1388L2.52793 9.59574L4.21583 8.80793C8.51583 6.7967 16.174 3.21443 17.9104 2.41216Z" fill="white"/>
</svg>
