<svg width="30" height="30" viewBox="0 0 30 30" fill="none" xmlns="http://www.w3.org/2000/svg">
<path d="M10.1586 8.75933C9.59887 10.3825 9.26305 12.1175 9.15112 13.9366H13.9646V8.75933H10.1586ZM11.0261 6.66045H13.9646V2.51865C12.7892 3.69404 11.8097 5.09328 11.0261 6.66045ZM8.73135 6.66045C9.34701 5.23321 10.1306 3.88992 11.0541 2.68656C8.67537 3.44217 6.63246 4.8694 5.14926 6.66045H8.73135ZM26.306 8.75933H22.0522C22.5559 10.3825 22.8638 12.1175 22.9478 13.9366H27.8731C27.7332 12.0616 27.1736 10.3265 26.306 8.75933ZM20.8489 13.9366C20.7649 12.1175 20.4011 10.3825 19.8414 8.75933H16.0354V13.9366H20.8489ZM18.9739 6.66045C18.2182 5.09328 17.2109 3.69404 16.0354 2.51865V6.66045H18.9739ZM21.2687 6.66045H24.8508C23.3395 4.8974 21.2967 3.44217 18.9459 2.68656C19.8694 3.88992 20.6531 5.23321 21.2687 6.66045ZM3.69404 21.2127H7.94777C7.44404 19.5895 7.13619 17.8545 7.05223 16.0354H2.12686C2.29477 17.9104 2.8265 19.6735 3.69404 21.2127ZM9.15112 16.0354C9.23508 17.8545 9.59887 19.5895 10.1586 21.2127H13.9646V16.0354H9.15112ZM11.0261 23.3115C11.8097 24.8787 12.8172 26.2781 13.9646 27.4533V23.3115H11.0261ZM8.73135 23.3115H5.12127C6.63246 25.0746 8.67537 26.5299 11.0261 27.2854C10.1306 26.11 9.34701 24.7668 8.73135 23.3115ZM22.0522 21.2127H26.306C27.1736 19.6455 27.7051 17.9104 27.8731 16.0354H22.9478C22.8638 17.8545 22.5559 19.5895 22.0522 21.2127ZM19.8414 21.2127C20.4011 19.5895 20.7369 17.8545 20.8489 16.0354H16.0354V21.2127H19.8414ZM18.9739 23.3115H16.0354V27.4533C17.2109 26.306 18.2182 24.9068 18.9739 23.3115ZM21.2687 23.3115C20.6531 24.7388 19.8694 26.0821 18.9459 27.2854C21.3246 26.5299 23.3676 25.1027 24.8508 23.3115H21.2687ZM7.94777 8.75933H3.69404C2.8265 10.3265 2.29477 12.0896 2.12686 13.9366H7.05223C7.16418 12.1455 7.47201 10.3825 7.94777 8.75933ZM15 30C6.71642 30 0 23.2836 0 15C0 6.71642 6.71642 0 15 0C23.2836 0 30 6.71642 30 15C30 23.2836 23.2836 30 15 30Z" fill="#1C1D21"/>
</svg>
