<svg width="20" height="20" viewBox="0 0 20 20" fill="none" xmlns="http://www.w3.org/2000/svg">
<path d="M6.77239 5.83955C6.39925 6.92164 6.17537 8.07836 6.10075 9.29105H9.3097V5.83955H6.77239ZM7.35075 4.4403H9.3097V1.6791C8.52612 2.46269 7.87314 3.39552 7.35075 4.4403ZM5.8209 4.4403C6.23134 3.48881 6.75373 2.59328 7.3694 1.79104C5.78358 2.29478 4.42164 3.24627 3.43284 4.4403H5.8209ZM17.5373 5.83955H14.7015C15.0373 6.92164 15.2425 8.07836 15.2985 9.29105H18.5821C18.4888 8.04105 18.1157 6.88433 17.5373 5.83955ZM13.8993 9.29105C13.8433 8.07836 13.6007 6.92164 13.2276 5.83955H10.6903V9.29105H13.8993ZM12.6493 4.4403C12.1455 3.39552 11.4739 2.46269 10.6903 1.6791V4.4403H12.6493ZM14.1791 4.4403H16.5672C15.5597 3.26493 14.1978 2.29478 12.6306 1.79104C13.2463 2.59328 13.7687 3.48881 14.1791 4.4403ZM2.46269 14.1418H5.29851C4.96269 13.0597 4.75746 11.903 4.70149 10.6903H1.41791C1.52985 11.9403 1.88433 13.1157 2.46269 14.1418ZM6.10075 10.6903C6.15672 11.903 6.39925 13.0597 6.77239 14.1418H9.3097V10.6903H6.10075ZM7.35075 15.541C7.87314 16.5858 8.54478 17.5187 9.3097 18.3022V15.541H7.35075ZM5.8209 15.541H3.41418C4.42164 16.7164 5.78358 17.6866 7.35075 18.1903C6.75373 17.4067 6.23134 16.5112 5.8209 15.541ZM14.7015 14.1418H17.5373C18.1157 13.097 18.4701 11.9403 18.5821 10.6903H15.2985C15.2425 11.903 15.0373 13.0597 14.7015 14.1418ZM13.2276 14.1418C13.6007 13.0597 13.8246 11.903 13.8993 10.6903H10.6903V14.1418H13.2276ZM12.6493 15.541H10.6903V18.3022C11.4739 17.5373 12.1455 16.6045 12.6493 15.541ZM14.1791 15.541C13.7687 16.4925 13.2463 17.3881 12.6306 18.1903C14.2164 17.6866 15.5784 16.7351 16.5672 15.541H14.1791ZM5.29851 5.83955H2.46269C1.88433 6.88433 1.52985 8.0597 1.41791 9.29105H4.70149C4.77612 8.09702 4.98134 6.92164 5.29851 5.83955ZM10 20C4.47761 20 0 15.5224 0 10C0 4.47761 4.47761 0 10 0C15.5224 0 20 4.47761 20 10C20 15.5224 15.5224 20 10 20Z" fill="black"/>
</svg>
